<?xml version="1.0" encoding="UTF-8"?>
<svg id="Layer_1" data-name="Layer 1" xmlns="http://www.w3.org/2000/svg" version="1.1" viewBox="0 0 283.46 283.46">
  <defs>
    <style>
      .cls-1 {
        fill: #00bcd4;
      }

      .cls-1, .cls-2 {
        stroke-width: 0px;
      }

      .cls-2 {
        fill: #03b3e3;
      }
    </style>
  </defs>
  <g>
    <path class="cls-2" d="M28.12,245.68c-1.86,0-2.92-1.1-2.92-3.02v-62.6c0-1.92,1.06-3.01,2.92-3.01h2.01c1.8,0,2.92,1.16,2.92,3.01v58.43h28.23c1.89,0,3.02,1.13,3.02,3.02v1.15c0,1.89-1.13,3.02-3.02,3.02H28.11h0Z"/>
    <path class="cls-2" d="M74.33,245.68c-1.89,0-3.02-1.13-3.02-3.02v-43.42c0-1.89,1.13-3.02,3.02-3.02h1.82c1.86,0,2.92,1.1,2.92,3.02v43.42c0,1.92-1.07,3.02-2.92,3.02h-1.82ZM74.04,186.44c-1.89,0-2.92-1.04-2.92-2.92v-3.46c0-1.92,1.07-3.01,2.92-3.01h2.4c1.86,0,2.92,1.1,2.92,3.01v3.46c0,1.88-1.04,2.92-2.92,2.92h-2.4Z"/>
    <path class="cls-2" d="M104.71,246.06c-4.35,0-11.65-1.61-11.65-12.41v-53.59c0-1.92,1.07-3.01,2.92-3.01h1.82c1.89,0,3.02,1.12,3.02,3.01v52.44c0,5.77,2.68,6.14,4.45,6.38,1.61.13,2.55,1.13,2.55,2.72v1.44c0,1.95-1.11,3.02-3.12,3.02h0Z"/>
    <path class="cls-2" d="M118.33,265.81c-2.97,0-5.36-1.03-6.89-1.79-.71-.33-1.25-.91-1.51-1.63-.26-.73-.2-1.54.17-2.28l.59-1.08c.73-1.35,1.77-1.63,2.52-1.63.35,0,.73.07,1.1.19l.42.19c.98.46,2.2,1.02,3.6,1.02,4.27,0,6.95-4.12,8.44-7.58l2.77-6.56-18.88-44.81c-.41-.99-.38-1.92.08-2.6.45-.67,1.27-1.05,2.32-1.05h2.21c1.64,0,2.68.71,3.27,2.22l13.51,33.35c.44,1.21.87,2.5,1.2,3.49.29-.98.7-2.26,1.19-3.48l13.23-33.26c.57-1.59,1.58-2.31,3.26-2.31h2.11c1.33,0,1.99.54,2.31.99.33.46.64,1.29.19,2.61l-22.73,55.26c-2.69,6.72-8.1,10.74-14.48,10.74h0Z"/>
    <path class="cls-1" d="M163.8,234.51l1.54-2.11c1.24-1.63,2.69-1.63,4.31-.38,2.11,2.01,6.13,5.18,12.46,5.18,7.96,0,14.86-5.47,14.86-13.71s-6.71-13.9-15.43-13.9c-4.22,0-7.57,1.53-9.3,2.4-1.53.57-2.87.67-4.21.19l-.87-.29c-1.63-.67-2.49-1.92-2.3-3.74l2.87-27.8c.2-2.02,1.25-2.97,3.26-2.97h27.99c2.11,0,3.17,1.05,3.17,3.16v1.92c0,2.01-1.05,3.16-3.17,3.16h-22.72l-1.63,14.28c-.09,2.02-.48,3.55-.48,3.55h.19s3.73-2.11,8.72-2.11c14.28,0,23.58,9.87,23.58,22.05,0,13.04-10.35,22.82-23.96,22.82-9.69,0-15.82-4.7-18.6-7.38-1.54-1.25-1.54-2.88-.29-4.32h.01Z"/>
    <path class="cls-1" d="M227.36,207.58c-4.79-3.17-8.15-7.38-8.15-13.61,0-9.01,6.8-17.73,21.09-17.73,12.65,0,21.47,7.09,21.47,17.83,0,9.3-6.9,16.49-8.05,17.73,5.46,3.26,9.59,7.77,9.59,14.67,0,10.35-9.01,19.75-23.2,19.75s-23.58-8.63-23.58-20.23c0-10.83,8.92-17.06,10.83-18.4h0ZM240.11,237.87c7,0,13.52-4.79,13.52-11.41,0-7.86-8.91-10.07-19.46-14.86-1.91,1.44-8.15,5.85-8.15,13.42s6.71,12.84,14.09,12.84h0ZM252.48,195.11c0-6.71-4.98-10.64-12.17-10.64-7.57,0-11.79,4.32-11.79,9.59,0,7.77,9.11,10.35,18.03,14.28,1.15-1.25,5.94-6.51,5.94-13.23h-.01Z"/>
  </g>
  <g>
    <g>
      <path class="cls-1" d="M144.26,11.39s-21.16,18.84-30.23,45.18c-1,2.89-1.85,5.86-2.5,8.91,2.74,1.28,5.42,2.74,8.01,4.4.65-3.01,1.53-5.94,2.57-8.78,5.69-15.65,16.23-28.36,22.15-34.69,8.39,8.97,26.07,30.79,26.07,55.59,0,6.6-1.28,12.98-3.22,18.88,2.85-1.16,5.81-2.17,8.84-3.02,1.62-5.83,2.6-11.98,2.6-18.33,0-37.64-34.28-68.15-34.28-68.15h-.01ZM163.06,110.75c-2.32,4.77-4.91,9.03-7.33,12.56l-.07.11c-.07.12-.16.22-.23.34-.28.4-.54.72-.79,1.01l-.06.06c-1.01,1.18-2.22,2.16-3.54,2.91-2.04,1.18-4.38,1.81-6.79,1.81,0,2.41-.64,4.75-1.81,6.79.6.05,1.2.08,1.81.08s1.21-.03,1.81-.07c.31-.03.63-.07.95-.11,1.11-.14,2.19-.37,3.24-.68,3.94-1.15,7.41-3.43,10.02-6.44.46-.53.89-1.07,1.29-1.64.15-.2.28-.4.42-.61,3.98-5.82,7.91-12.63,10.93-20.15-3.47,1.14-6.77,2.53-9.86,4.03h.01Z"/>
      <path class="cls-2" d="M194.27,95.27c-6.35,0-12.5.97-18.33,2.6-.84,3.04-1.87,6-3.02,8.85,5.9-1.96,12.29-3.23,18.89-3.23,24.79,0,46.61,17.66,55.58,26.07-8.97,8.41-30.79,26.08-55.58,26.08-16.47,0-31.56-7.95-41.32-14.61l-.1-.07c-.12-.07-.23-.15-.33-.23-.42-.3-.77-.57-1.07-.84-.12-.1-.26-.22-.37-.33-.89-.84-1.67-1.77-2.3-2.8-.09-.13-.17-.28-.25-.41-1.18-2.04-1.81-4.38-1.81-6.79,0,2.41-.64,4.75-1.81,6.79-.67,1.19-1.52,2.28-2.55,3.22.03.07.08.15.12.23,1.11,2.03,2.56,3.84,4.24,5.39.15.14.29.26.44.4.52.46,1.07.89,1.63,1.29.21.14.41.28.62.42,12.25,8.37,28.94,16.55,47.32,16.55,37.64,0,68.15-34.28,68.15-34.28,0,0-30.51-34.28-68.15-34.28v-.02Z"/>
      <path class="cls-2" d="M133.13,69.95c-3.4-3.4-7.13-6.33-11.03-8.85-2.62-1.69-5.33-3.19-8.08-4.53-25.04-12.22-53.33-10.57-53.33-10.57,0,0-1.65,28.29,10.57,53.32,1.34,2.75,2.85,5.45,4.54,8.08,2.83-1.03,5.77-1.91,8.77-2.56-1.66-2.59-3.12-5.28-4.39-8.02-7.03-15.09-8.58-31.53-8.87-40.2,8.67.28,25.12,1.83,40.21,8.86,2.74,1.28,5.42,2.74,8.01,4.4,3.38,2.17,6.6,4.69,9.53,7.61,10.01,10.01,15.15,23.44,17.79,34.38.03-.02.07-.05.1-.07,1.99-1.36,4.1-2.71,6.31-4.02-3.28-12.86-9.25-26.95-20.14-37.83h.01Z"/>
      <path class="cls-1" d="M155.27,117.91c-.04-.69-.12-1.38-.24-2.07-.03-.22-.07-.42-.11-.63-1.56.95-3.04,1.91-4.41,2.85l-.17.12c-.12.07-.24.15-.35.24l-.11.07c-.3.22-.62.47-.98.79-.09.08-.18.16-.27.25-.12.11-.24.22-.36.34-2.55,2.55-4,6.03-4,9.67,0,2.41-.64,4.75-1.81,6.79-.67,1.19-1.52,2.28-2.55,3.22-.09.09-.18.17-.27.25-.05.04-.09.08-.13.11-.32.27-.59.49-.86.68l-.11.08c-.11.08-.22.16-.34.24l-.18.12c-9.76,6.65-24.84,14.59-41.3,14.59-24.79,0-46.61-17.68-55.59-26.08,6.33-5.92,19.04-16.45,34.69-22.15,2.83-1.03,5.77-1.91,8.77-2.56,3.93-.86,7.99-1.36,12.12-1.36,6.6,0,12.98,1.27,18.89,3.23,3.47,1.15,6.77,2.54,9.87,4.05,4.77,2.32,9.01,4.9,12.56,7.32l.11.07c.11.07.22.15.33.23.43.31.76.57,1.08.85.12.1.24.21.36.32,1.13-2.12,2.6-4.03,4.36-5.62-.15-.14-.29-.27-.44-.39-.53-.46-1.07-.89-1.64-1.29-.2-.14-.4-.28-.61-.42-5.81-3.98-12.63-7.9-20.15-10.93-2.85-1.15-5.8-2.18-8.84-3.03-5.83-1.62-11.98-2.6-18.33-2.6-4.82,0-9.52.56-14.05,1.55-3.06.65-6.04,1.5-8.93,2.5-26.33,9.07-45.17,30.23-45.17,30.23,0,0,30.51,34.28,68.15,34.28,18.37,0,35.04-8.17,47.3-16.53.26-.17.52-.35.77-.54.56-.39,1.08-.82,1.6-1.27.11-.09.22-.21.34-.32,1.75-1.59,3.23-3.5,4.35-5.62.68-1.26,1.23-2.6,1.64-3.99.32-1.05.54-2.13.68-3.24,1.78-2.29,3.01-4.87,3.72-7.55.59-2.23.79-4.56.62-6.85h-.01Z"/>
    </g>
    <g>
      <path class="cls-1" d="M214.41,69.32c-.29-.3-.29-.78,0-1.07l6.36-6.36c.29-.29.77-.29,1.07,0l6.35,6.36c.3.29.3.77,0,1.07l-6.35,6.36c-.3.29-.78.29-1.07,0l-6.36-6.35h0Z"/>
      <path class="cls-1" d="M215.71,82.85c-.24-.24-.24-.63,0-.87l5.16-5.16c.24-.24.63-.24.87,0l5.15,5.15c.24.24.24.63,0,.87l-5.15,5.15c-.24.24-.63.24-.87,0l-5.16-5.15h0Z"/>
      <path class="cls-1" d="M192.27,90.36c-.35.35-.92.35-1.27,0l-7.55-7.55c-.35-.35-.35-.92,0-1.27l7.55-7.54c.35-.35.92-.35,1.27,0l7.55,7.54c.36.35.36.92,0,1.27l-7.54,7.55h0Z"/>
      <path class="cls-1" d="M198.53,65.39c.29.3.29.78,0,1.07l-6.36,6.36c-.29.29-.77.29-1.07,0l-6.35-6.36c-.3-.29-.3-.77,0-1.07l6.35-6.36c.3-.29.78-.29,1.07,0l6.36,6.35h0Z"/>
      <path class="cls-1" d="M220.66,44.35c.36-.35.93-.35,1.28,0l7.55,7.55c.35.35.35.92,0,1.27l-7.55,7.54c-.35.35-.92.35-1.27,0l-7.55-7.54c-.35-.35-.35-.92,0-1.27l7.54-7.55h0Z"/>
      <path class="cls-1" d="M197.23,51.87c.24.24.24.63,0,.87l-5.16,5.16c-.24.24-.63.24-.87,0l-5.15-5.16c-.24-.24-.24-.63,0-.87l5.16-5.15c.24-.24.63-.24.87,0l5.16,5.15h-.01Z"/>
      <path class="cls-1" d="M204.51,45.65c.3-.3.78-.3,1.07,0l6.36,6.36c.29.29.29.77,0,1.07l-6.36,6.36c-.29.3-.77.3-1.07,0l-6.36-6.36c-.29-.29-.29-.77,0-1.07l6.35-6.36h0Z"/>
      <path class="cls-1" d="M208.43,89.09c-.29.29-.77.29-1.07,0l-6.35-6.36c-.3-.29-.3-.78,0-1.07l6.35-6.36c.3-.3.78-.3,1.07,0l6.36,6.36c.29.29.29.77,0,1.07l-6.36,6.36Z"/>
    </g>
  </g>
</svg>